<svg width="48" height="48" viewBox="0 0 48 48" fill="none" xmlns="http://www.w3.org/2000/svg">
<circle cx="24" cy="24" r="24" fill="#E97171"/>
<path d="M9.67543 23.182H5.76845V21.362H9.67543V23.182ZM18.0573 18.7412C18.0573 19.4044 17.8551 19.9707 17.4506 20.4398C17.0516 20.9036 16.4881 21.2218 15.76 21.3943V21.4348C16.6175 21.5426 17.2673 21.8042 17.7095 22.2194C18.1517 22.6346 18.3728 23.1955 18.3728 23.9019C18.3728 24.9211 18.0007 25.7165 17.2565 26.2882C16.5177 26.8598 15.4581 27.1456 14.0775 27.1456C12.9343 27.1456 11.9097 26.9542 11.0037 26.5713V24.6542C11.9421 25.1287 12.8858 25.366 13.8349 25.366C14.5844 25.366 15.1345 25.2393 15.485 24.9858C15.8355 24.7324 16.0108 24.3441 16.0108 23.821C16.0108 23.2926 15.8086 22.9232 15.4041 22.7128C15.0051 22.4971 14.3553 22.3893 13.4547 22.3893H12.6458V20.6663H13.4628C14.2986 20.6663 14.9053 20.5558 15.2828 20.3347C15.6603 20.1136 15.849 19.7469 15.849 19.2346C15.849 18.4257 15.3421 18.0212 14.3283 18.0212C13.6219 18.0212 12.8669 18.2828 12.0634 18.8059L11.0199 17.2528C11.9852 16.5517 13.1419 16.2012 14.4901 16.2012C15.5902 16.2012 16.4584 16.425 17.0947 16.8726C17.7365 17.3148 18.0573 17.9376 18.0573 18.7412ZM22.0674 18.8706C21.8409 19.4368 21.7276 20.3724 21.7276 21.6775C21.7276 22.9825 21.8409 23.9181 22.0674 24.4843C22.2939 25.0506 22.6714 25.3337 23.1998 25.3337C23.7283 25.3337 24.1085 25.0506 24.3404 24.4843C24.5723 23.9127 24.6882 22.9771 24.6882 21.6775C24.6882 20.3778 24.5696 19.4422 24.3323 18.8706C24.1004 18.299 23.7202 18.0131 23.1918 18.0131C22.6687 18.0131 22.2939 18.299 22.0674 18.8706ZM19.4951 21.6289C19.4951 19.79 19.7971 18.4257 20.4011 17.5359C21.0104 16.6407 21.9353 16.1931 23.1756 16.1931C24.4213 16.1931 25.3569 16.6596 25.9824 17.5925C26.6134 18.5201 26.9289 19.8979 26.9289 21.726C26.9289 23.5541 26.6242 24.9157 26.0148 25.8109C25.4054 26.7007 24.4779 27.1456 23.2322 27.1456C21.9865 27.1456 21.0509 26.6845 20.4253 25.7624C19.8052 24.8402 19.4951 23.4624 19.4951 21.6289ZM37.9116 21.9767C37.669 21.9767 37.491 22.125 37.3777 22.4216C37.2699 22.7182 37.216 23.1766 37.216 23.7968C37.216 25.0209 37.4479 25.633 37.9116 25.633C38.3754 25.633 38.6073 25.0236 38.6073 23.8049C38.6073 22.5861 38.3754 21.9767 37.9116 21.9767ZM37.8954 20.456C38.7151 20.456 39.3434 20.7445 39.7802 21.3215C40.2224 21.8932 40.4435 22.7236 40.4435 23.8129C40.4435 24.9023 40.2278 25.7273 39.7964 26.2882C39.3703 26.849 38.7448 27.1294 37.9197 27.1294C37.0946 27.1294 36.4637 26.8409 36.0269 26.2639C35.5955 25.6869 35.3798 24.8591 35.3798 23.7806C35.3798 21.5642 36.2183 20.456 37.8954 20.456ZM30.4536 17.7219C30.2109 17.7219 30.033 17.8702 29.9197 18.1668C29.8119 18.4634 29.7579 18.9218 29.7579 19.542C29.7579 20.7661 29.9898 21.3782 30.4536 21.3782C30.9174 21.3782 31.1492 20.7688 31.1492 19.5501C31.1492 18.3313 30.9174 17.7219 30.4536 17.7219ZM36.2453 16.3549H37.9925L32.0876 27H30.3403L36.2453 16.3549ZM30.4374 16.2012C31.2571 16.2012 31.8853 16.4897 32.3221 17.0667C32.7643 17.6437 32.9854 18.4769 32.9854 19.5662C32.9854 20.6555 32.7697 21.4833 32.3383 22.0495C31.9123 22.6104 31.2894 22.8908 30.4698 22.8908C29.6501 22.8908 29.0218 22.6023 28.585 22.0253C28.1482 21.4429 27.9298 20.6124 27.9298 19.5339C27.9298 17.3121 28.7657 16.2012 30.4374 16.2012Z" fill="white"/>
</svg>
