<svg width="48" height="48" viewBox="0 0 48 48" fill="none" xmlns="http://www.w3.org/2000/svg">
<circle cx="24" cy="24" r="24" fill="#2EC1AC"/>
<path d="M18.7826 16.3549V27H15.911L11.2841 18.9515H11.2194C11.3111 20.4075 11.3569 21.4213 11.3569 21.9929V27H9.34277V16.3549H12.182L16.8089 24.3306H16.8574C16.7873 22.9987 16.7523 22.0199 16.7523 21.3943V16.3549H18.7826ZM26.2079 22.0091C26.2025 21.4644 26.0623 21.0411 25.7873 20.7391C25.5123 20.4371 25.1375 20.2861 24.6629 20.2861C24.1938 20.2861 23.8244 20.4371 23.5547 20.7391C23.2851 21.0357 23.1314 21.459 23.0937 22.0091H26.2079ZM27.8338 26.5713C27.068 26.9542 26.1135 27.1456 24.9703 27.1456C23.6599 27.1456 22.6353 26.787 21.8965 26.0698C21.1631 25.3472 20.7964 24.3118 20.7964 22.9636C20.7964 21.6154 21.1361 20.5693 21.8156 19.8251C22.5059 19.0809 23.4361 18.7088 24.6063 18.7088C25.7819 18.7088 26.6906 19.0377 27.3323 19.6957C27.974 20.3536 28.2949 21.2568 28.2949 22.4055V23.4813H23.0451C23.0667 24.1176 23.2527 24.6138 23.6033 24.9697C23.9592 25.3202 24.4499 25.4954 25.0755 25.4954C26.0084 25.4954 26.9278 25.2824 27.8338 24.8564V26.5713ZM38.9136 27H36.495L35.8722 24.1527L35.0228 20.5612H34.9743L33.4859 27H31.0997L28.7862 18.8625H31.0026L31.9409 22.4621C32.0811 23.0607 32.2321 23.9532 32.3939 25.1395H32.4424C32.4586 24.7405 32.5827 23.9478 32.8145 22.7614L33.8176 18.8625H36.2604L37.2149 22.7614C37.4414 23.8507 37.5655 24.6434 37.587 25.1395H37.6275C37.6706 24.8429 37.7488 24.3792 37.8621 23.7482C37.9753 23.1119 38.0562 22.6832 38.1047 22.4621L39.0835 18.8625H41.2594L38.9136 27Z" fill="white"/>
</svg>
